PathFileType	4	(X/Y/Z)	c:/Users/goper/Files/vsCode/490R/osim_files/C06/C06_ROM.trc
DataRate	CameraRate	NumFrames	NumMarkers	Units                	OrigDataRate	OrigDataStartFrame	OrigNumFrames
250.00	250.00	9	36	mm	250.0	2139	3421
                Frame#	Time	LPSIS			LASIS			LTH1			LTH2			LTH3			LTH4			LLFE			LMFE			LSH1			LSH2			LSH3			LSH4			LLMAL			LMMAL			LCAL			LMTP5			LTOE			LMTP1			RPSIS			RASIS			RTH1			RTH2			RTH3			RTH4			RLFE			RMFE			RSH1			RSH2			RSH3			RSH4			RLMAL			RMMAL			RCAL			RMTP1			RTOE			RMTP5		
		X1	Y1	Z1	X2	Y2	Z2	X3	Y3	Z3	X4	Y4	Z4	X5	Y5	Z5	X6	Y6	Z6	X7	Y7	Z7	X8	Y8	Z8	X9	Y9	Z9	X10	Y10	Z10	X11	Y11	Z11	X12	Y12	Z12	X13	Y13	Z13	X14	Y14	Z14	X15	Y15	Z15	X16	Y16	Z16	X17	Y17	Z17	X18	Y18	Z18	X19	Y19	Z19	X20	Y20	Z20	X21	Y21	Z21	X22	Y22	Z22	X23	Y23	Z23	X24	Y24	Z24	X25	Y25	Z25	X26	Y26	Z26	X27	Y27	Z27	X28	Y28	Z28	X29	Y29	Z29	X30	Y30	Z30	X31	Y31	Z31	X32	Y32	Z32	X33	Y33	Z33	X34	Y34	Z34	X35	Y35	Z35	X36	Y36	Z36

2139	8.55200	-501.34631	706.85590	437.73203	-361.23560	678.56598	340.46375	-389.39188	528.27954	235.49783	-331.91354	505.19833	225.51445	-352.37933	591.97650	257.85486	-300.41010	560.57965	244.69560	-101.55822	414.44138	202.86070	-92.95872	385.65045	319.53220	-188.28073	347.79053	183.77420	-202.97745	306.01834	183.10609	-129.32135	320.22824	185.08797	-153.40138	283.31116	183.37515	-305.25040	91.68105	208.24550	-288.15616	98.84110	287.65976	-373.49884	65.95550	253.93889	-200.66905	28.91902	172.71538	-147.27394	56.87443	238.30989	-171.16176	38.30659	284.94687	-505.25504	701.65686	507.92273	-382.50620	656.07684	547.83411	-383.12183	506.88541	677.27673	-327.29840	483.19205	683.01959	-346.56754	573.10632	663.06201	-295.11697	538.55627	670.84979	-91.55853	384.39285	705.61774	-62.34503	399.81268	587.06866	-164.17749	348.56500	712.83875	-186.67732	305.83847	717.31244	-113.80397	312.64056	710.52679	-143.93451	275.90353	713.08130	-304.47562	89.11087	680.70801	-275.79459	102.78876	602.36542	-376.38120	61.82792	635.45551	-173.21458	48.92365	611.34174	-151.52913	54.87762	651.86969	-198.70883	24.92614	715.93164
2140	8.55600	-501.71588	705.21558	437.71240	-361.66983	677.73712	340.49408	-389.89407	527.23877	235.61327	-332.07657	504.42834	225.36026	-353.10532	591.04718	258.08408	-300.90424	559.83063	244.86485	-101.67463	414.49802	203.08659	-93.10949	385.63171	319.77902	-188.34766	347.81656	183.96745	-203.05838	306.07553	183.30595	-129.39490	320.26904	185.30942	-153.45963	283.27496	183.51547	-305.28946	91.69440	208.28731	-288.18054	98.83875	287.69415	-373.54660	65.96441	253.94865	-200.67096	28.94414	172.73495	-147.29266	56.90855	238.36238	-171.14911	38.35668	284.95844	-505.62994	700.10577	507.91092	-382.87918	655.15393	547.81317	-383.60876	505.78033	677.28156	-327.62888	482.28662	682.94604	-347.17773	572.09991	662.97552	-295.57117	537.74365	670.77319	-91.60314	384.43774	705.53052	-62.51792	399.74960	586.97717	-164.23445	348.58832	712.75629	-186.73245	305.85022	717.23206	-113.87785	312.69556	710.45435	-143.96397	275.97067	713.01654	-304.48541	89.13615	680.69080	-275.82602	102.77390	602.35217	-376.36621	61.81132	635.44617	-173.23372	48.95372	611.36414	-151.53616	54.91728	651.87555	-198.70909	24.95866	715.93610
2141	8.56000	-502.10324	703.68921	437.71280	-362.09647	676.92993	340.52472	-390.35062	526.28088	235.61766	-332.70029	503.57748	225.70255	-353.74643	590.10376	258.27280	-301.51538	559.00940	245.06645	-101.83254	414.53806	203.35051	-93.25887	385.59973	320.06946	-188.43044	347.86185	184.16284	-203.17845	306.18094	183.66188	-129.48627	320.30731	185.55444	-153.51520	283.29523	183.71974	-305.31195	91.71913	208.31779	-288.20184	98.80679	287.73804	-373.56470	65.98121	253.96941	-200.69333	28.96316	172.75163	-147.32416	56.94582	238.38060	-171.15654	38.36007	284.97812	-506.09457	698.46136	507.80911	-383.23816	654.25397	547.79626	-384.13077	504.70944	677.20166	-327.98410	481.30701	682.89545	-347.80795	571.08405	662.84106	-296.03986	536.84149	670.61072	-91.64548	384.44461	705.41809	-62.73223	399.67810	586.83704	-164.27264	348.58835	712.66357	-186.77975	305.83188	717.12659	-113.93741	312.74289	710.34698	-144.01573	275.96979	712.88385	-304.52231	89.11444	680.67175	-275.81689	102.77675	602.34003	-376.40128	61.83914	635.44116	-173.23109	48.96937	611.38452	-151.55005	54.95362	651.88739	-198.72054	24.98182	715.93219
2142	8.56400	-502.44193	702.15631	437.71210	-362.51556	676.14429	340.55560	-390.58133	525.49225	235.52666	-332.93765	502.72568	225.58456	-354.34775	589.15125	258.40796	-302.08878	558.24701	245.21512	-101.99929	414.57086	203.63335	-93.49306	385.55197	320.35867	-188.48206	347.91260	184.37573	-203.23708	306.24011	183.85814	-129.51512	320.38129	185.80038	-153.55309	283.28772	183.93817	-305.34958	91.72921	208.35107	-288.21796	98.76782	287.76541	-373.60385	65.95329	253.98721	-200.68822	29.00039	172.76476	-147.30531	56.94485	238.39867	-171.19592	38.33270	284.99194	-506.45200	696.92456	507.74579	-383.58322	653.37720	547.78333	-384.55289	503.65314	677.13153	-328.34769	480.36139	682.82697	-348.42822	570.04767	662.76947	-296.62787	535.96295	670.48749	-91.72230	384.46191	705.28143	-62.93158	399.64017	586.70166	-164.36824	348.54312	712.52234	-186.82690	305.80322	717.01831	-115.35839	312.64410	709.58313	-144.07118	275.96890	712.75922	-304.53726	89.08626	680.63794	-275.83878	102.75631	602.31195	-376.43027	61.81708	635.42719	-173.25163	48.96638	611.40137	-151.55513	54.99021	651.89081	-198.73943	24.97653	715.94568
2143	8.56800	-502.75510	700.67914	437.68515	-362.92703	675.38031	340.58679	-391.30545	524.37286	235.79956	-333.36853	501.89908	225.67824	-355.05573	588.24237	258.63245	-302.64075	557.50226	245.36281	-102.13367	414.62393	203.91069	-93.66141	385.57645	320.67191	-188.57765	347.93433	184.58698	-203.36168	306.23334	184.08772	-129.57745	320.44058	186.05679	-153.64870	283.33084	184.18550	-305.38248	91.73167	208.38594	-288.24542	98.73197	287.81320	-373.61969	65.92675	253.97958	-200.68944	29.03115	172.78760	-147.32518	56.98924	238.43538	-171.18605	38.35461	285.00116	-506.84875	695.38690	507.66611	-383.91443	652.52338	547.77441	-385.07751	502.58890	677.09314	-328.78674	479.38406	682.73499	-349.05844	569.05286	662.58948	-297.07642	535.02985	670.36786	-91.82581	384.49008	705.12604	-63.11435	399.63715	586.53247	-164.44601	348.51678	712.37476	-186.90475	305.78595	716.88837	-115.43514	312.64572	709.42084	-144.13213	275.98279	712.61566	-304.56647	89.06621	680.58044	-275.85519	102.72229	602.28870	-376.46057	61.81802	635.39539	-173.25104	48.97309	611.41217	-151.56096	55.01331	651.89093	-198.74335	25.00318	715.94208
2144	8.57200	-503.08643	699.19849	437.64081	-363.33093	674.63794	340.61823	-391.74564	523.45728	235.84172	-333.79843	501.10403	225.78900	-355.72894	587.26868	258.77686	-303.23669	556.68451	245.53511	-102.25597	414.64075	204.17139	-93.88439	385.53052	320.99371	-188.66443	347.97717	184.80588	-203.36328	306.26904	184.24130	-129.63406	320.50101	186.31624	-153.64325	283.44318	184.45222	-305.40488	91.73949	208.41998	-288.25433	98.69390	287.85532	-373.61969	65.94174	253.99139	-200.69078	29.04618	172.77850	-147.34348	56.98485	238.43605	-171.17374	38.35518	285.00201	-507.20746	693.91260	507.51465	-384.23181	651.69263	547.76923	-385.53766	501.53754	676.98834	-329.08762	478.44693	682.67480	-349.65964	568.04895	662.45880	-297.64069	534.21912	670.18042	-91.90250	384.52515	704.94629	-63.29876	399.66061	586.32153	-164.49391	348.51501	712.23315	-186.90936	305.76843	716.78735	-115.48911	312.68460	709.25378	-144.14989	275.99738	712.42493	-304.53824	89.06113	680.55029	-275.87631	102.69932	602.24048	-376.45053	61.78633	635.38513	-173.24710	48.97416	611.40466	-151.57697	55.03347	651.87927	-198.73668	25.02731	715.92419
2145	8.57600	-503.42648	697.70081	437.62518	-363.72729	673.91711	340.64987	-392.22037	522.49579	235.87715	-334.22513	500.20657	225.89012	-356.27277	586.55524	258.94159	-303.75217	555.95386	245.70528	-102.37457	414.67233	204.44933	-94.03934	385.52823	321.26407	-188.72127	348.00159	185.01820	-203.37866	306.30389	184.40401	-129.67375	320.53821	186.53224	-153.71648	283.48309	184.68208	-305.42630	91.73685	208.45726	-288.29791	98.66865	287.90442	-373.62363	65.92085	254.00523	-200.68373	29.07682	172.78828	-147.35393	57.00894	238.44910	-171.19312	38.36251	285.00662	-507.46649	692.45551	507.48267	-384.53552	650.88489	547.76794	-385.95233	500.60013	676.94476	-329.44641	477.58618	682.53119	-350.21097	567.06964	662.35492	-298.18463	533.33783	670.04639	-92.03317	384.56183	704.72607	-63.53074	399.68817	586.08038	-164.50203	348.53604	712.10590	-186.93721	305.77856	716.65137	-115.53553	312.72028	709.09570	-144.16963	276.03665	712.30743	-304.53796	89.07034	680.48950	-275.91391	102.68829	602.18457	-376.42712	61.77917	635.36383	-173.24884	48.98963	611.39374	-151.57532	55.06337	651.88104	-198.72977	25.05018	715.91217
2146	8.58000	-503.71082	696.30127	437.64478	-364.11603	673.21796	340.68179	-392.45303	521.63702	235.75870	-334.83240	499.38263	226.22519	-357.00461	585.51190	259.09332	-304.32797	555.18903	245.84401	-102.53660	414.70160	204.75319	-94.22630	385.50217	321.55109	-188.80038	348.01761	185.25011	-203.43871	306.31018	184.60637	-129.74635	320.58505	186.76775	-153.77174	283.56046	184.88750	-305.43436	91.74226	208.47443	-288.34546	98.63382	287.94986	-373.60950	65.90376	253.99832	-200.72632	29.07833	172.79439	-147.38344	57.03256	238.46303	-171.19310	38.37150	285.00061	-507.90231	690.95538	507.37595	-384.82556	650.10028	547.77045	-386.45752	499.58041	676.85193	-329.88348	476.68332	682.44299	-350.83835	566.14270	662.14447	-298.58090	532.61804	669.96930	-92.09155	384.59070	704.54309	-63.69312	399.76404	585.80768	-164.60873	348.60345	711.94574	-187.00291	305.83182	716.51904	-115.63204	312.77103	708.91656	-144.20375	276.10977	712.14160	-304.58957	89.10038	680.47034	-275.93842	102.67215	602.12732	-376.42184	61.77851	635.34692	-173.27414	48.99385	611.37311	-151.60432	55.09060	651.86694	-198.74498	25.09299	715.90021
2147	8.58400	-504.03333	694.82379	437.67825	-364.49713	672.54034	340.71393	-393.08917	520.58197	235.93866	-334.98593	498.61282	226.07123	-357.62228	584.64087	259.22977	-304.85403	554.39911	245.99188	-102.71707	414.73294	205.02095	-94.35517	385.53323	321.77792	-188.85226	348.04440	185.49799	-203.54645	306.24521	184.82109	-129.82745	320.62415	187.00067	-153.91013	283.49991	185.02499	-305.44360	91.73262	208.51892	-288.35449	98.61945	287.98599	-373.62256	65.90001	254.01196	-200.71361	29.11121	172.77399	-147.35370	57.09029	238.43776	-171.20227	38.36292	284.99521	-508.23691	689.58972	507.36996	-385.10211	649.33875	547.77667	-386.91928	498.67938	676.77673	-330.19586	475.82761	682.29956	-351.39944	565.22198	661.98303	-299.21106	531.77234	669.76776	-92.17924	384.62897	704.34802	-63.89774	399.81277	585.54138	-164.71967	348.61646	711.72772	-187.09583	305.85675	716.36615	-115.69347	312.83011	708.74152	-144.21863	276.15967	711.99084	-304.63074	89.13199	680.41559	-275.98016	102.67519	602.06543	-376.45435	61.76859	635.36481	-173.30435	49.00581	611.33063	-151.61890	55.11973	651.84680	-198.76488	25.12080	715.89258
